# xmcd
#
# Track frame offsets:
#	150
#	13269
#	62362
#	78384
#	96251
#	130850
#
# Disc length: 2107 seconds
#
# Revision: 24
# Processed by: cddbd v1.5.2PL0 Copyright (c) Steve Scherf et al.
# Submitted via: audiograbber 1.83.01
#
DISCID=44083906
DTITLE=Jean-Michel Jarre - Original Album Classics [CD 3) - Rendez-Vous [remast
DTITLE=ered 2015]
DYEAR=1986
DGENRE=Electronic
TTITLE0=Rendez-Vous 1
TTITLE1=Rendez-Vous 2
TTITLE2=Rendez-Vous 3
TTITLE3=Rendez-Vous 4
TTITLE4=Rendez-Vous 5
TTITLE5=Last Rendez-Vous (Ron's Piece)
EXTD=
EXTT0=
EXTT1=
EXTT2=
EXTT3=
EXTT4=
EXTT5=
PLAYORDER=
